<?xml version="1.0" standalone="no"?>
<!DOCTYPE svg PUBLIC "-//W3C//DTD SVG 20010904//EN"
 "http://www.w3.org/TR/2001/REC-SVG-20010904/DTD/svg10.dtd">
<svg version="1.0" xmlns="http://www.w3.org/2000/svg"
 width="716.000000pt" height="716.000000pt" viewBox="0 0 716.000000 716.000000"
 preserveAspectRatio="xMidYMid meet">
<metadata>
Created by potrace 1.14, written by Peter Selinger 2001-2017
</metadata>
<g transform="translate(0.000000,716.000000) scale(0.100000,-0.100000)"
fill="#000000" stroke="none">
<path d="M3500 6984 c-19 -3 -44 -9 -55 -13 -11 -5 -78 -14 -150 -21 -692 -61
-1371 -354 -1902 -818 -569 -498 -961 -1191 -1092 -1932 -43 -243 -54 -389
-48 -655 8 -338 46 -598 132 -895 89 -306 255 -656 447 -943 198 -295 532
-637 807 -825 203 -139 280 -185 471 -279 238 -117 384 -174 594 -232 277 -77
413 -102 676 -121 118 -9 412 -7 510 4 25 3 82 7 127 11 240 17 596 109 889
230 1044 432 1805 1362 2023 2475 46 235 55 342 55 640 0 305 -9 410 -60 665
-109 547 -356 1063 -714 1495 -157 189 -422 437 -590 552 -36 24 -108 74 -160
110 -401 274 -960 475 -1480 532 -141 15 -420 27 -480 20z m115 -54 c143 -5
307 -14 365 -20 478 -48 977 -218 1374 -468 123 -78 339 -236 416 -305 368
-330 595 -620 799 -1021 130 -253 201 -448 281 -766 62 -245 83 -436 82 -735
-1 -317 -29 -545 -101 -833 -203 -799 -698 -1495 -1393 -1956 -389 -257 -805
-418 -1317 -507 -154 -27 -207 -32 -423 -36 -263 -6 -412 3 -628 38 -904 146
-1680 647 -2226 1439 -100 145 -121 181 -210 360 -389 788 -458 1650 -198
2490 236 760 764 1435 1446 1849 411 249 871 409 1338 466 134 16 96 16 395 5z"/>
<path d="M4085 6808 c-31 -17 -35 -28 -35 -93 0 -33 -4 -65 -8 -70 -6 -10
-266 -65 -303 -65 -9 0 -24 -15 -33 -34 -14 -30 -14 -37 -1 -63 8 -17 29 -35
50 -43 19 -8 35 -17 35 -22 0 -15 42 -8 74 11 25 16 136 51 160 51 3 0 6 -15
6 -34 0 -34 -1 -35 -47 -41 -69 -10 -121 -23 -180 -47 -43 -17 -53 -25 -53
-44 0 -13 5 -24 11 -24 5 0 7 -4 4 -10 -9 -15 85 -70 121 -70 17 0 47 6 65 14
76 31 76 31 83 -21 3 -27 15 -63 27 -82 11 -18 18 -35 16 -38 -11 -10 -197
-43 -247 -43 -30 0 -72 -5 -92 -10 -21 -6 -54 -14 -74 -19 -45 -12 -108 -61
-112 -88 -5 -33 51 -81 103 -89 42 -6 51 -2 147 55 96 58 109 63 221 82 142
25 302 36 453 34 106 -2 115 -4 190 -40 44 -21 99 -40 124 -42 41 -4 53 1 126
49 44 29 89 62 100 73 12 11 29 25 40 32 18 11 18 12 1 30 -14 14 -39 19 -115
24 -151 11 -294 10 -332 -1 -19 -5 -75 -12 -125 -16 -49 -3 -108 -9 -130 -14
-22 -5 -66 -10 -98 -10 -54 0 -58 1 -52 20 4 12 7 56 8 100 l2 78 96 13 c53 6
109 8 125 4 38 -10 231 -18 261 -10 29 7 30 36 2 81 -34 56 -99 91 -123 67 -4
-4 -85 -8 -181 -8 l-175 -1 0 47 0 47 43 4 c39 4 127 -18 127 -33 0 -11 124
12 139 26 20 20 5 67 -35 106 l-35 34 -125 -4 c-120 -3 -124 -2 -124 17 0 32
-21 74 -54 110 -33 35 -41 37 -71 20z"/>
<path d="M3109 6538 c0 -2 -2 -66 -4 -143 -2 -95 -9 -164 -22 -215 l-18 -74
-65 -12 c-241 -45 -312 -57 -366 -59 -33 -1 -66 -5 -72 -9 -21 -12 -13 -44 18
-80 36 -40 86 -60 138 -54 29 4 166 42 305 84 15 5 17 -2 16 -53 -2 -63 23
-125 84 -210 l29 -42 -21 -30 c-32 -44 -107 -107 -157 -132 -34 -16 -55 -20
-84 -15 -49 8 -67 0 -85 -35 -25 -47 7 -100 75 -124 52 -18 100 -19 137 -3 58
26 140 84 201 142 l64 61 44 -47 c24 -26 44 -57 44 -68 0 -47 60 -110 104
-110 9 0 16 -5 16 -10 0 -12 48 -3 68 13 6 5 12 23 12 39 0 60 -43 116 -194
250 l-39 34 17 40 c9 21 36 77 59 123 38 76 42 91 42 160 l1 75 38 9 c25 6 46
6 62 -2 53 -24 183 -1 219 39 24 27 7 66 -46 104 -38 26 -44 28 -79 17 -20 -6
-51 -11 -68 -11 -17 0 -60 -7 -96 -15 l-66 -15 -64 65 c-35 36 -72 65 -82 65
-16 0 -19 8 -20 58 0 34 -8 71 -18 92 -27 51 -76 100 -103 100 -13 0 -23 -1
-24 -2z m176 -355 c19 -29 9 -43 -34 -43 -17 0 -22 4 -17 16 3 9 6 26 6 40 0
29 22 23 45 -13z m28 -205 c-6 -56 -77 -208 -97 -208 -23 0 -38 65 -34 155 l3
80 35 6 c19 4 49 7 66 8 31 1 31 0 27 -41z"/>
<path d="M4337 5989 c-11 -6 -17 -22 -17 -43 0 -34 0 -34 -57 -40 -32 -4 -95
-14 -141 -22 l-83 -15 -35 31 c-41 36 -48 36 -75 9 -17 -17 -20 -29 -15 -61
10 -58 -22 -236 -53 -300 l-26 -53 -74 -7 c-137 -12 -160 -18 -177 -44 -15
-23 -15 -26 7 -59 13 -19 28 -35 32 -35 5 0 28 -20 52 -44 23 -24 57 -47 74
-51 17 -3 33 -11 36 -16 4 -5 11 -9 16 -9 6 0 7 5 3 12 -4 7 -3 8 4 4 28 -17
86 8 140 59 l54 53 32 -18 c43 -25 93 -34 124 -22 15 6 66 12 115 15 l87 3 0
-130 c0 -72 -7 -193 -15 -269 -9 -85 -11 -145 -5 -155 5 -9 13 -43 19 -75 21
-113 72 -146 169 -108 54 22 69 20 115 -12 16 -10 31 -17 34 -14 3 3 -18 20
-46 37 l-51 32 0 117 c0 64 -4 121 -9 126 -25 27 -63 669 -51 870 1 17 -10 55
-24 85 -48 102 -121 170 -159 149z m-5 -263 c-5 -77 -16 -83 -140 -88 -56 -1
-102 1 -102 6 0 5 -7 3 -15 -4 -13 -11 -15 -4 -15 57 l0 70 48 -4 c26 -2 72 0
102 5 30 5 71 10 90 11 l35 1 -3 -54z m-207 -222 c19 -3 50 -3 68 1 74 15 139
17 148 4 13 -21 11 -52 -3 -46 -13 4 -211 -8 -279 -18 l-37 -5 14 38 c7 20 13
45 14 55 0 16 2 15 19 -2 11 -11 36 -23 56 -27z"/>
<path d="M5010 4760 c0 -5 5 -10 10 -10 6 0 10 5 10 10 0 6 -4 10 -10 10 -5 0
-10 -4 -10 -10z"/>
<path d="M4840 4750 c-13 -8 -12 -10 3 -10 9 0 17 5 17 10 0 12 -1 12 -20 0z"/>
<path d="M5271 4663 c-1 -6 -4 -20 -7 -30 -5 -17 -5 -17 6 0 6 10 9 23 6 30
-3 9 -5 9 -5 0z"/>
<path d="M4960 4650 c0 -5 5 -10 10 -10 6 0 10 5 10 10 0 6 -4 10 -10 10 -5 0
-10 -4 -10 -10z"/>
<path d="M5520 4640 c0 -5 5 -10 10 -10 6 0 10 5 10 10 0 6 -4 10 -10 10 -5 0
-10 -4 -10 -10z"/>
<path d="M5370 4610 c0 -5 5 -10 10 -10 6 0 10 5 10 10 0 6 -4 10 -10 10 -5 0
-10 -4 -10 -10z"/>
<path d="M5407 4600 c-8 -11 -17 -17 -21 -13 -3 4 -4 -7 -1 -23 4 -20 -1 -37
-15 -54 -16 -20 -20 -22 -20 -7 0 9 4 17 9 17 5 0 11 10 14 21 l6 21 -23 -21
c-22 -21 -23 -21 -40 -2 -10 11 -15 25 -11 30 12 20 -6 33 -19 15 -9 -11 -22
-15 -39 -12 -15 3 -24 1 -21 -4 4 -5 -9 -8 -27 -6 -26 2 -35 9 -40 28 -6 25
-6 24 -10 -5 -3 -23 -9 -30 -25 -30 -12 -1 -29 -6 -37 -13 -13 -11 -18 -7 -33
28 -19 42 -42 51 -63 26 -13 -16 1 -30 29 -31 8 0 16 -10 18 -22 3 -17 0 -21
-12 -17 -12 5 -16 0 -16 -19 0 -19 -6 -26 -22 -29 -12 -2 -28 -14 -35 -28 -7
-14 -13 -19 -13 -12 0 6 -4 12 -10 12 -5 0 -8 -13 -6 -30 2 -16 -1 -30 -6 -30
-6 0 -8 -7 -5 -14 4 -9 -2 -17 -14 -21 -17 -6 -17 -8 -4 -21 11 -11 12 -20 5
-34 -5 -10 -7 -25 -4 -33 3 -8 -2 -17 -10 -20 -9 -4 -16 -14 -16 -22 0 -9 5
-13 10 -10 6 3 10 1 10 -5 0 -6 -6 -10 -12 -9 -33 4 -48 -4 -67 -35 -28 -44
-27 -88 3 -123 20 -23 31 -27 69 -25 50 2 66 -10 46 -34 -21 -25 0 -29 26 -4
30 28 34 54 6 45 -11 -3 -22 -1 -26 5 -3 5 1 10 9 10 9 0 16 7 16 15 0 8 7 15
15 15 8 0 15 -5 15 -11 0 -6 9 -8 20 -4 25 8 50 -10 50 -36 0 -21 11 -24 27
-8 14 14 33 3 33 -17 0 -8 4 -13 9 -10 5 4 11 1 13 -4 2 -6 25 0 54 15 43 21
56 24 79 15 15 -6 30 -9 32 -6 3 3 9 36 12 69 1 11 35 9 47 -3 17 -17 38 14
26 37 -11 21 -5 46 9 37 6 -3 17 0 26 8 9 7 19 12 22 10 3 -2 7 1 9 7 2 6 -1
11 -7 11 -6 0 -11 7 -11 15 0 8 9 15 20 15 11 0 20 5 20 11 0 6 -9 9 -20 6
-16 -4 -20 0 -20 18 0 13 7 31 16 40 12 11 13 19 5 29 -7 9 -7 16 1 24 9 9 8
12 -6 12 -16 0 -18 6 -13 34 5 28 3 33 -12 29 -10 -2 -23 3 -30 11 -8 9 -10
16 -5 16 5 0 2 5 -6 10 -12 8 -13 13 -2 30 6 11 12 31 12 45 0 14 3 25 8 25 4
0 12 16 18 35 12 39 3 46 -19 15z"/>
<path d="M4860 4580 c0 -5 5 -10 11 -10 5 0 7 5 4 10 -3 6 -8 10 -11 10 -2 0
-4 -4 -4 -10z"/>
<path d="M5605 4560 c-3 -5 1 -10 9 -10 9 0 16 5 16 10 0 6 -4 10 -9 10 -6 0
-13 -4 -16 -10z"/>
<path d="M4650 4540 c0 -5 5 -10 10 -10 6 0 10 5 10 10 0 6 -4 10 -10 10 -5 0
-10 -4 -10 -10z"/>
<path d="M4865 4530 c3 -5 8 -10 11 -10 2 0 4 5 4 10 0 6 -5 10 -11 10 -5 0
-7 -4 -4 -10z"/>
<path d="M5480 4525 c0 -8 2 -15 4 -15 2 0 6 7 10 15 3 8 1 15 -4 15 -6 0 -10
-7 -10 -15z"/>
<path d="M4736 4521 c-4 -5 -2 -12 3 -15 5 -4 12 -2 15 3 4 5 2 12 -3 15 -5 4
-12 2 -15 -3z"/>
<path d="M4900 4510 c0 -5 5 -10 10 -10 6 0 10 5 10 10 0 6 -4 10 -10 10 -5 0
-10 -4 -10 -10z"/>
<path d="M4560 4493 c0 -5 32 -16 70 -25 78 -16 97 -8 23 10 -27 6 -58 14 -70
18 -13 3 -23 2 -23 -3z"/>
<path d="M4783 4487 c5 -15 37 -22 37 -9 0 5 -9 12 -21 15 -13 3 -19 1 -16 -6z"/>
<path d="M5505 4464 c-18 -28 -15 -40 10 -31 8 4 15 18 15 32 0 31 -4 31 -25
-1z"/>
<path d="M4848 4473 c6 -2 9 -10 6 -15 -4 -7 -2 -8 4 -4 18 11 14 26 -5 25
-11 0 -13 -3 -5 -6z"/>
<path d="M5433 4450 c1 -11 2 -20 4 -20 1 0 7 9 13 20 8 16 8 20 -4 20 -9 0
-14 -8 -13 -20z"/>
<path d="M5685 4440 c-3 -5 -1 -10 4 -10 6 0 11 5 11 10 0 6 -2 10 -4 10 -3 0
-8 -4 -11 -10z"/>
<path d="M5500 4400 c0 -5 5 -10 10 -10 6 0 10 5 10 10 0 6 -4 10 -10 10 -5 0
-10 -4 -10 -10z"/>
<path d="M5470 4388 c0 -7 7 -24 16 -36 14 -20 14 -22 -3 -23 -16 0 -16 -1 2
-8 14 -6 24 -3 32 8 14 19 6 34 -13 27 -9 -4 -13 1 -11 16 1 11 -4 23 -10 25
-7 3 -13 -1 -13 -9z"/>
<path d="M4795 4380 c3 -5 11 -10 16 -10 6 0 7 5 4 10 -3 6 -11 10 -16 10 -6
0 -7 -4 -4 -10z"/>
<path d="M4710 4334 c0 -8 -4 -13 -8 -10 -11 7 -38 -11 -30 -20 9 -8 58 23 58
36 0 6 -4 10 -10 10 -5 0 -10 -7 -10 -16z"/>
<path d="M5553 4335 c0 -8 2 -15 4 -15 3 0 11 7 19 15 14 13 13 15 -4 15 -10
0 -19 -7 -19 -15z"/>
<path d="M5638 4203 c7 -3 16 -2 19 1 4 3 -2 6 -13 5 -11 0 -14 -3 -6 -6z"/>
<path d="M1490 4160 c-41 -35 -44 -41 -32 -60 7 -11 10 -25 7 -30 -4 -6 -1
-10 4 -10 6 0 11 -11 11 -25 0 -19 4 -23 17 -18 10 4 14 2 10 -4 -4 -7 0 -10
10 -8 10 2 21 4 26 4 10 1 9 79 -2 85 -5 3 -6 21 -2 39 5 18 5 40 2 49 -5 14
-14 10 -51 -22z m50 -130 c0 -5 -4 -10 -10 -10 -5 0 -10 5 -10 10 0 6 5 10 10
10 6 0 10 -4 10 -10z"/>
<path d="M4670 4140 c0 -9 5 -11 30 -14 21 -2 14 17 -7 20 -13 2 -23 -1 -23
-6z"/>
<path d="M5495 4070 c-3 -5 -1 -10 4 -10 6 0 11 5 11 10 0 6 -2 10 -4 10 -3 0
-8 -4 -11 -10z"/>
<path d="M4550 4050 c0 -5 5 -10 10 -10 6 0 10 5 10 10 0 6 -4 10 -10 10 -5 0
-10 -4 -10 -10z"/>
<path d="M4568 4022 c-29 -17 -36 -32 -17 -32 15 0 69 33 69 42 0 12 -22 8
-52 -10z"/>
<path d="M4790 4029 c0 -5 5 -7 10 -4 6 3 10 8 10 11 0 2 -4 4 -10 4 -5 0 -10
-5 -10 -11z"/>
<path d="M4615 4000 c-3 -5 -1 -10 4 -10 6 0 11 5 11 10 0 6 -2 10 -4 10 -3 0
-8 -4 -11 -10z"/>
<path d="M5256 3979 c-11 -11 -15 -19 -9 -19 12 0 38 28 32 34 -2 2 -13 -5
-23 -15z"/>
<path d="M5330 3990 c0 -5 5 -10 10 -10 6 0 10 5 10 10 0 6 -4 10 -10 10 -5 0
-10 -4 -10 -10z"/>
<path d="M5290 3980 c0 -5 5 -10 11 -10 5 0 7 5 4 10 -3 6 -8 10 -11 10 -2 0
-4 -4 -4 -10z"/>
<path d="M4480 3970 c-12 -8 -9 -10 13 -10 15 0 27 5 27 10 0 13 -20 13 -40 0z"/>
<path d="M2996 3940 c-27 -11 -61 -31 -76 -45 -50 -48 -118 -49 -285 -6 -97
26 -117 26 -189 1 -72 -24 -110 -52 -125 -89 -33 -78 17 -126 122 -118 57 5
92 21 81 38 -3 5 -13 5 -24 -1 -10 -5 -39 -10 -63 -10 -109 0 -98 107 16 155
45 18 96 14 197 -18 42 -13 92 -21 141 -21 l77 0 -14 -45 c-8 -25 -19 -98 -24
-161 -14 -152 -16 -161 -62 -260 -57 -123 -117 -180 -192 -180 -39 0 -96 41
-96 70 0 69 167 145 206 93 10 -15 15 -16 25 -5 22 21 -14 47 -64 46 -111 -3
-227 -68 -227 -127 0 -14 -6 -28 -12 -30 -9 -4 -8 -6 2 -6 8 -1 21 -10 28 -21
19 -30 86 -60 136 -60 51 0 128 23 167 51 89 63 154 245 173 484 13 152 24
179 96 225 27 18 50 38 50 46 0 18 -4 17 -64 -6z"/>
<path d="M5081 3944 c0 -11 3 -14 6 -6 3 7 2 16 -1 19 -3 4 -6 -2 -5 -13z"/>
<path d="M5190 3949 c0 -5 5 -7 10 -4 6 3 10 8 10 11 0 2 -4 4 -10 4 -5 0 -10
-5 -10 -11z"/>
<path d="M5320 3919 c0 -28 21 -79 33 -79 11 0 8 17 -6 32 -8 7 -12 19 -10 25
3 7 0 20 -6 30 -9 16 -10 15 -11 -8z"/>
<path d="M5037 3914 c-4 -4 -7 -14 -7 -23 0 -11 3 -12 11 -4 6 6 10 16 7 23
-2 6 -7 8 -11 4z"/>
<path d="M5040 3843 c0 -5 5 -15 10 -23 8 -12 10 -11 10 8 0 12 -4 22 -10 22
-5 0 -10 -3 -10 -7z"/>
<path d="M5270 3834 c0 -8 5 -12 10 -9 6 4 8 11 5 16 -9 14 -15 11 -15 -7z"/>
<path d="M5245 3800 c-3 -5 -1 -10 4 -10 6 0 11 5 11 10 0 6 -2 10 -4 10 -3 0
-8 -4 -11 -10z"/>
<path d="M5400 3780 c0 -5 5 -10 11 -10 5 0 7 5 4 10 -3 6 -8 10 -11 10 -2 0
-4 -4 -4 -10z"/>
<path d="M5445 3740 c-3 -5 -1 -10 4 -10 6 0 11 5 11 10 0 6 -2 10 -4 10 -3 0
-8 -4 -11 -10z"/>
<path d="M3074 3705 c-10 -25 4 -45 29 -45 35 0 52 23 32 44 -21 20 -54 21
-61 1z"/>
<path d="M4256 3651 c-9 -16 -22 -31 -30 -34 -8 -3 -17 -23 -21 -45 -3 -21
-31 -77 -60 -123 l-54 -84 0 45 c0 25 6 81 13 125 15 87 14 95 -14 95 -14 0
-28 -23 -56 -91 -50 -121 -134 -238 -134 -186 0 6 9 44 20 82 35 121 24 175
-34 175 -36 0 -86 -32 -86 -56 0 -21 31 -17 57 8 22 21 23 21 23 1 0 -11 -11
-51 -24 -90 -38 -111 -41 -148 -17 -172 27 -27 73 -27 105 2 14 12 39 47 56
77 l30 55 -6 -80 c-4 -44 -9 -85 -13 -92 -3 -6 -31 -37 -61 -70 -103 -109
-120 -133 -120 -168 0 -44 21 -58 88 -62 70 -5 118 17 146 66 16 28 21 58 24
155 l4 121 47 75 46 75 3 -37 c4 -45 21 -60 64 -56 28 2 39 12 68 57 l35 54 7
-44 c8 -49 45 -89 81 -89 12 0 41 11 65 25 41 23 46 24 72 10 17 -9 56 -15 93
-15 52 0 71 5 108 28 50 32 112 99 106 115 -7 23 -24 16 -77 -33 -69 -63 -111
-84 -156 -76 -62 12 -72 84 -14 104 50 18 80 56 80 100 0 65 -47 90 -110 57
-33 -17 -70 -80 -70 -120 0 -14 -4 -25 -10 -25 -6 0 -7 -18 -4 -43 6 -40 4
-46 -22 -64 -51 -35 -52 -35 -71 -1 -13 25 -17 55 -16 126 1 90 0 92 -23 92
-19 0 -24 -7 -30 -37 -6 -35 -71 -144 -94 -158 -18 -11 -6 165 15 233 11 32
-12 28 -29 -7z m414 -50 c0 -23 -37 -71 -55 -71 -10 0 -12 7 -5 31 17 58 60
86 60 40z m-655 -530 c-12 -65 -91 -107 -125 -66 -18 22 -2 54 68 130 l57 63
3 -46 c2 -26 0 -62 -3 -81z"/>
<path d="M3697 3606 c-5 -12 -13 -12 -42 -4 -32 11 -39 9 -78 -18 -58 -41
-107 -125 -107 -184 0 -38 -5 -51 -28 -73 -15 -15 -31 -27 -35 -27 -4 0 -7 44
-7 99 0 78 -3 101 -16 112 -23 19 -79 14 -114 -11 l-31 -22 3 38 c3 33 0 39
-17 39 -25 0 -43 -36 -56 -114 -7 -38 -22 -74 -41 -100 -40 -55 -53 -53 -43 7
5 26 9 72 9 102 1 53 0 55 -26 58 -16 2 -28 2 -28 0 -1 -2 -7 -39 -15 -83 -18
-98 -19 -147 -3 -163 19 -19 73 -14 101 9 20 15 31 18 44 10 30 -15 53 5 53
45 0 19 6 49 14 67 13 32 78 97 96 97 6 0 10 -44 10 -104 0 -82 3 -108 16
-120 26 -27 70 -19 113 19 32 29 46 35 85 35 38 0 52 5 72 28 25 25 26 26 23
5 -3 -15 -44 -53 -118 -110 -142 -109 -156 -127 -156 -200 0 -48 4 -58 28 -79
23 -20 39 -24 90 -24 81 0 125 23 154 81 25 49 42 150 43 247 0 68 -1 67 115
165 17 14 27 28 23 32 -4 4 -33 -14 -65 -40 l-58 -48 -3 29 c-5 39 7 114 19
114 5 0 9 11 9 24 0 13 7 29 15 36 8 7 15 19 15 26 0 19 -56 18 -63 0z m-39
-61 c5 -20 -64 -158 -90 -182 -29 -26 -20 -2 22 62 22 33 40 65 40 72 0 22
-23 27 -36 7 -7 -10 -20 -28 -29 -39 -15 -18 -15 -18 -1 11 21 44 66 96 80 91
6 -2 13 -12 14 -22z m-15 -307 c-16 -212 -59 -286 -158 -274 -46 5 -65 27 -65
74 0 58 28 100 109 161 42 32 82 66 90 75 23 27 28 18 24 -36z"/>
<path d="M2220 3300 c0 -5 5 -10 10 -10 6 0 10 5 10 10 0 6 -4 10 -10 10 -5 0
-10 -4 -10 -10z"/>
<path d="M2237 3233 c-12 -11 -8 -23 8 -23 8 0 15 7 15 15 0 16 -12 20 -23 8z"/>
<path d="M2625 3221 c-6 -11 9 -23 19 -14 9 9 7 23 -3 23 -6 0 -12 -4 -16 -9z"/>
<path d="M2055 3120 c-3 -5 -1 -10 4 -10 6 0 11 5 11 10 0 6 -2 10 -4 10 -3 0
-8 -4 -11 -10z"/>
<path d="M2165 3110 c-3 -5 -1 -10 4 -10 6 0 11 5 11 10 0 6 -2 10 -4 10 -3 0
-8 -4 -11 -10z"/>
<path d="M2755 3090 c3 -5 13 -10 21 -10 8 0 14 5 14 10 0 6 -9 10 -21 10 -11
0 -17 -4 -14 -10z"/>
<path d="M2202 3076 c7 -8 15 -12 17 -11 5 6 -10 25 -20 25 -5 0 -4 -6 3 -14z"/>
<path d="M2284 3074 c3 -8 6 -23 6 -32 0 -15 2 -15 10 -2 14 22 12 37 -6 44
-12 5 -15 2 -10 -10z"/>
<path d="M2815 3080 c3 -5 11 -10 16 -10 6 0 7 5 4 10 -3 6 -11 10 -16 10 -6
0 -7 -4 -4 -10z"/>
<path d="M2086 3060 c4 -14 7 -33 6 -43 0 -12 4 -17 13 -13 8 3 27 -11 45 -34
31 -40 30 -49 -10 -48 -8 0 -30 -3 -47 -7 -21 -5 -33 -4 -33 3 0 5 -6 12 -13
15 -9 3 -13 -6 -14 -32 -1 -64 -24 -111 -54 -111 -18 0 -19 -1 -4 -24 14 -21
14 -26 2 -37 -8 -8 -12 -21 -9 -31 5 -19 2 -19 -68 -22 -30 -1 -35 -5 -38 -28
-3 -22 1 -28 15 -28 10 0 24 9 31 20 10 16 16 18 32 10 12 -6 17 -16 13 -26
-3 -9 3 -21 17 -31 15 -11 19 -18 11 -26 -17 -17 -13 -45 9 -60 21 -15 17 -29
-6 -20 -8 3 -14 1 -14 -5 0 -6 14 -13 30 -17 21 -5 30 -13 30 -26 0 -13 4 -18
11 -13 8 5 10 -1 7 -17 -4 -21 -1 -24 26 -24 26 0 31 -4 30 -23 0 -16 3 -19
10 -12 18 18 36 11 36 -14 0 -29 19 -44 31 -25 6 10 9 11 9 1 0 -7 -5 -21 -12
-32 -10 -16 -8 -27 12 -68 21 -42 31 -51 65 -60 33 -9 46 -8 75 7 19 10 35 24
36 32 0 8 4 21 7 29 11 29 14 70 6 70 -5 0 -9 12 -9 26 0 20 4 24 18 20 14 -5
18 -1 18 16 -1 20 5 23 42 26 32 2 42 7 38 17 -6 17 19 39 38 32 11 -4 13 -1
9 11 -6 14 -4 15 9 4 14 -11 17 -9 23 16 3 16 5 45 3 65 -1 23 4 43 15 55 13
14 14 21 4 31 -10 11 -7 12 13 6 22 -5 21 -3 -7 15 -38 25 -45 66 -14 78 17 6
18 9 5 26 -8 11 -14 17 -14 13 0 -4 -9 -3 -20 3 -22 12 -27 36 -7 43 9 4 9 6
-1 6 -8 1 -10 10 -6 29 5 21 4 25 -6 15 -9 -9 -23 -3 -61 24 -27 19 -49 41
-49 48 0 8 -19 16 -50 20 -27 4 -53 11 -56 16 -3 5 -15 2 -27 -6 -27 -19 -97
-20 -97 -1 0 7 -11 26 -25 42 -14 16 -39 45 -56 64 -27 31 -29 32 -23 10z"/>
<path d="M2431 3061 c-8 -14 -7 -20 3 -24 10 -4 13 2 12 19 -1 29 -2 29 -15 5z"/>
<path d="M2607 3063 c-4 -3 -7 -11 -7 -17 0 -6 5 -5 12 2 6 6 9 14 7 17 -3 3
-9 2 -12 -2z"/>
<path d="M2335 3030 c-3 -5 -1 -10 4 -10 6 0 11 5 11 10 0 6 -2 10 -4 10 -3 0
-8 -4 -11 -10z"/>
<path d="M2055 3020 c3 -5 8 -10 11 -10 2 0 4 5 4 10 0 6 -5 10 -11 10 -5 0
-7 -4 -4 -10z"/>
<path d="M2337 3004 c-8 -8 1 -24 14 -24 5 0 9 7 9 15 0 15 -12 20 -23 9z"/>
<path d="M2397 2991 c3 -12 9 -21 14 -21 14 0 11 16 -5 29 -12 10 -13 8 -9 -8z"/>
<path d="M1821 2984 c0 -11 3 -14 6 -6 3 7 2 16 -1 19 -3 4 -6 -2 -5 -13z"/>
<path d="M2110 2983 c0 -15 18 -35 23 -27 3 5 -1 15 -9 22 -8 7 -14 9 -14 5z"/>
<path d="M1950 2953 c0 -5 9 -18 20 -28 11 -10 20 -14 20 -8 0 5 -9 18 -20 28
-11 10 -20 14 -20 8z"/>
<path d="M2490 2885 c0 -8 2 -15 4 -15 2 0 6 7 10 15 3 8 1 15 -4 15 -6 0 -10
-7 -10 -15z"/>
<path d="M1766 2865 c-3 -8 -1 -15 4 -15 6 0 10 7 10 15 0 8 -2 15 -4 15 -2 0
-6 -7 -10 -15z"/>
<path d="M2660 2834 c0 -8 5 -12 10 -9 6 3 10 10 10 16 0 5 -4 9 -10 9 -5 0
-10 -7 -10 -16z"/>
<path d="M2698 2843 c7 -3 16 -2 19 1 4 3 -2 6 -13 5 -11 0 -14 -3 -6 -6z"/>
<path d="M2620 2829 c0 -5 5 -7 10 -4 6 3 10 8 10 11 0 2 -4 4 -10 4 -5 0 -10
-5 -10 -11z"/>
<path d="M1670 2814 c0 -8 5 -12 10 -9 6 3 10 10 10 16 0 5 -4 9 -10 9 -5 0
-10 -7 -10 -16z"/>
<path d="M1922 2804 c10 -10 20 -16 22 -13 3 3 -5 11 -17 18 -21 13 -21 12 -5
-5z"/>
<path d="M1720 2790 c0 -5 5 -10 10 -10 6 0 10 5 10 10 0 6 -4 10 -10 10 -5 0
-10 -4 -10 -10z"/>
<path d="M1707 2763 c-12 -11 -8 -23 8 -23 8 0 15 7 15 15 0 16 -12 20 -23 8z"/>
<path d="M1770 2729 c0 -5 5 -7 10 -4 6 3 10 8 10 11 0 2 -4 4 -10 4 -5 0 -10
-5 -10 -11z"/>
<path d="M1840 2679 c0 -5 5 -7 10 -4 6 3 10 8 10 11 0 2 -4 4 -10 4 -5 0 -10
-5 -10 -11z"/>
<path d="M2815 2660 c3 -5 8 -10 11 -10 2 0 4 5 4 10 0 6 -5 10 -11 10 -5 0
-7 -4 -4 -10z"/>
<path d="M1790 2640 c0 -5 5 -10 10 -10 6 0 10 5 10 10 0 6 -4 10 -10 10 -5 0
-10 -4 -10 -10z"/>
<path d="M1620 2575 c0 -8 5 -15 10 -15 6 0 10 7 10 15 0 8 -4 15 -10 15 -5 0
-10 -7 -10 -15z"/>
<path d="M2710 2583 c8 -3 18 -11 22 -17 4 -6 10 -7 15 -3 9 10 -16 27 -37 26
-13 -1 -13 -1 0 -6z"/>
<path d="M2765 2570 c3 -5 15 -10 26 -10 11 0 17 5 14 10 -3 6 -15 10 -26 10
-11 0 -17 -4 -14 -10z"/>
<path d="M2622 2540 c0 -14 2 -19 5 -12 2 6 2 18 0 25 -3 6 -5 1 -5 -13z"/>
<path d="M1780 2524 c0 -8 5 -12 10 -9 6 4 8 11 5 16 -9 14 -15 11 -15 -7z"/>
<path d="M1890 2499 c0 -5 5 -7 10 -4 6 3 10 8 10 11 0 2 -4 4 -10 4 -5 0 -10
-5 -10 -11z"/>
<path d="M2760 2490 c0 -5 5 -10 10 -10 6 0 10 5 10 10 0 6 -4 10 -10 10 -5 0
-10 -4 -10 -10z"/>
<path d="M1895 2430 c-8 -13 5 -13 25 0 13 8 13 10 -2 10 -9 0 -20 -4 -23 -10z"/>
<path d="M1870 2390 c0 -5 -7 -10 -15 -10 -8 0 -15 -4 -15 -10 0 -18 29 -11
40 10 7 14 7 20 0 20 -5 0 -10 -4 -10 -10z"/>
<path d="M1796 2352 c-3 -6 -1 -14 5 -17 15 -10 25 3 12 16 -7 7 -13 7 -17 1z"/>
<path d="M1965 2330 c-3 -5 -2 -10 4 -10 5 0 13 5 16 10 3 6 2 10 -4 10 -5 0
-13 -4 -16 -10z"/>
<path d="M1692 2305 c-37 -20 -50 -39 -15 -21 17 9 35 20 38 26 7 12 7 12 -23
-5z"/>
<path d="M2410 2281 c0 -11 -6 -22 -12 -24 -7 -3 -3 -6 8 -6 14 -1 24 -9 27
-23 10 -35 19 -14 12 25 -7 38 -35 60 -35 28z"/>
<path d="M2560 2296 c0 -2 7 -9 15 -16 12 -10 15 -10 15 4 0 9 -7 16 -15 16
-8 0 -15 -2 -15 -4z"/>
<path d="M1730 2276 c0 -9 5 -16 10 -16 6 0 10 4 10 9 0 6 -4 13 -10 16 -5 3
-10 -1 -10 -9z"/>
<path d="M2630 2271 c0 -10 30 -24 37 -17 3 3 2 9 -2 15 -8 13 -35 15 -35 2z"/>
<path d="M1610 2255 c-7 -8 -8 -15 -2 -15 5 0 15 7 22 15 7 8 8 15 2 15 -5 0
-15 -7 -22 -15z"/>
<path d="M1780 2215 c-29 -30 -51 -57 -48 -60 3 -3 29 21 58 55 28 33 50 60
48 60 -2 0 -28 -25 -58 -55z"/>
<path d="M1956 2221 c-4 -5 -2 -12 3 -16 7 -3 7 -15 1 -30 -7 -19 -6 -23 6
-18 9 3 13 16 12 35 -3 31 -13 45 -22 29z"/>
<path d="M2160 2210 c0 -5 5 -10 10 -10 6 0 10 5 10 10 0 6 -4 10 -10 10 -5 0
-10 -4 -10 -10z"/>
<path d="M2140 2090 c-15 -28 -4 -39 17 -17 13 12 14 20 6 28 -8 8 -14 5 -23
-11z"/>
<path d="M4420 2088 c-30 -5 -95 -18 -145 -28 -49 -11 -148 -29 -219 -40 -116
-18 -131 -19 -146 -5 -9 8 -21 15 -27 15 -6 0 -13 5 -15 12 -3 7 -14 9 -32 4
-32 -8 -32 -4 0 -141 15 -66 19 -118 18 -290 -2 -385 -2 -379 -20 -364 -10 8
-50 13 -107 15 -108 2 -348 21 -394 30 -29 5 -32 10 -38 53 -8 62 -10 179 -3
187 12 12 118 17 118 5 0 -12 135 -16 164 -5 32 12 18 53 -28 83 -43 27 -48
28 -154 23 l-109 -4 -6 69 c-4 37 -7 92 -7 122 l0 53 66 -7 c99 -10 194 17
194 57 0 4 -19 17 -41 29 -34 17 -52 20 -98 14 -178 -20 -241 -17 -366 13
-118 30 -192 -53 -93 -104 25 -13 54 -15 137 -13 l106 4 3 -126 3 -127 -38 -5
c-21 -3 -93 -4 -161 -2 -122 3 -123 3 -134 -21 -10 -20 -7 -27 17 -51 27 -28
29 -28 150 -26 68 0 132 6 143 12 28 15 29 5 24 -116 -3 -82 -7 -103 -19 -103
-8 0 -92 -5 -186 -11 -178 -11 -227 -24 -227 -59 0 -32 42 -59 90 -59 69 1
225 18 331 35 90 15 102 15 172 0 42 -10 79 -21 82 -27 21 -32 237 -55 285
-29 44 24 130 48 130 36 0 -35 -52 -118 -92 -146 -71 -52 -103 -61 -184 -54
-66 6 -73 5 -83 -14 -9 -17 -7 -25 11 -42 12 -11 40 -25 63 -31 22 -5 52 -15
68 -21 49 -19 144 -1 190 35 62 49 97 89 103 119 4 15 10 26 14 23 13 -8 20
23 32 130 l11 102 126 12 c69 7 148 17 174 22 54 10 184 1 194 -13 3 -6 7 -92
8 -192 5 -278 16 -325 86 -361 24 -13 36 -14 72 -4 74 22 71 8 63 259 -3 124
-10 240 -16 259 -6 20 -6 40 0 50 6 11 4 21 -6 32 -28 31 -57 260 -67 522 -3
82 -10 134 -18 145 -22 29 -53 52 -71 52 -10 0 -18 5 -18 10 0 11 -3 11 -80
-2z m40 -207 c0 -49 3 -97 7 -107 6 -16 1 -17 -57 -11 -36 4 -89 3 -120 -2
-30 -6 -95 -15 -145 -21 -49 -6 -104 -13 -121 -16 l-31 -6 -6 64 c-4 35 -9 72
-12 83 -8 29 7 45 46 50 19 3 99 14 179 25 80 11 165 21 190 23 25 2 51 4 58
5 9 2 12 -22 12 -87z m-64 -203 l74 -21 0 -89 0 -88 -27 0 c-16 0 -42 -9 -60
-19 -45 -28 -129 -41 -276 -44 l-127 -2 -1 30 c-1 29 2 100 5 140 1 11 8 19
15 17 8 -2 57 7 110 19 94 21 163 49 176 69 9 15 28 13 111 -12z"/>
<path d="M2199 1938 c-1 -7 0 -25 1 -40 1 -16 -4 -28 -10 -28 -7 0 -6 -5 2
-14 17 -19 28 -2 28 46 0 34 -19 66 -21 36z"/>
<path d="M2241 1934 c0 -11 3 -14 6 -6 3 7 2 16 -1 19 -3 4 -6 -2 -5 -13z"/>
<path d="M2150 1900 c0 -5 5 -10 10 -10 6 0 10 5 10 10 0 6 -4 10 -10 10 -5 0
-10 -4 -10 -10z"/>
<path d="M2201 1800 c0 -33 1 -34 11 -12 8 17 8 26 0 34 -9 9 -12 4 -11 -22z"/>
</g>
</svg>
