<svg id="图层_1" data-name="图层 1" xmlns="http://www.w3.org/2000/svg" viewBox="0 0 1366 145.38"><defs><style>.cls-1{fill:#001a3d;}.cls-2{fill:#012d76;}.cls-3{fill:#006bc5;}.cls-4{fill:#004d9b;}.cls-5{fill:#50b6f6;}</style></defs><title>wave2</title><path class="cls-1" d="M1366,496c-34.67-3.09-95.76.81-161.9,8.38-98.41,11.26-418.08,52.88-547,49.76C616.93,553.2,534.8,520.26,442,520,255.49,519.49,25.06,553,.18,557.79v16.84c4.88,4.16,11.86,8.18,19.35,12.29,14.12,7.75,37.91,12.1,61.33,15.31C182,616.08,292.55,614.83,400,613.41l720.54-9.54c34.76-.46,70.65-1,102.07-6.66s57.39-17.78,53.93-30.84c41.14-14.09,70.27-25.73,89.43-35.22Z" transform="translate(0 -494.97)"/><path class="cls-2" d="M1320.29,550.58c-9.78,0-245.86-11.33-474.29-11.58-188.26-.2-372.55,10.92-410,9-89.81-4.61-234.52-41.57-334-48-48.48-3.13-91.17,15.7-102,20.72v79.49c36.05,5.91,76,5.66,114.77,5.31l454.77-4.11,395.35-3.56c84.67-.77,169.53-1.54,253.5-6.13,43.62-2.39,90-6.49,120.3-19.84,15.82-7,24.91-11.72,27.2-14.92v-2.73C1362.84,551.25,1347.7,550.58,1320.29,550.58Z" transform="translate(0 -494.97)"/><path class="cls-3" d="M1256.23,539.48c-88.22,9-190,6.81-253.74,10.15-91.33,4.8-217.37,23.15-333.87,25.24-42.33.76-449-21.31-489.62-21.87-67.81-.93-146.26,9.2-179,14.37V605l799.45-2,365.48-5.48c98.7,0,159.87-2.87,201.07-16.63V520.37C1336.88,528,1298,535.21,1256.23,539.48Z" transform="translate(0 -494.97)"/><path class="cls-4" d="M1366,539c-107.8,5.3-236.61,29.21-366.91,32-292.87,6.28-615.3-1.55-880.09,19,213.12-1.32,423.07,20.09,636.69,21,203.6.87,411-18.87,610.31-16Z" transform="translate(0 -494.97)"/><path class="cls-5" d="M913.27,593.36C776,596.66,620.54,606.43,466,599c-171.28-8.24-340.68-32.24-466,6.63v3.63c135.11,30.17,425.36,34.81,703.72,28.82C1256.41,626.19,1762.18,572.39,913.27,593.36Z" transform="translate(0 -494.97)"/></svg>