<svg id="visual" viewBox="0 0 900 100" width="900" height="100" xmlns="http://www.w3.org/2000/svg" xmlns:xlink="http://www.w3.org/1999/xlink" version="1.1"><path d="M0 26L21.5 29.7C43 33.3 86 40.7 128.8 42.7C171.7 44.7 214.3 41.3 257.2 40.2C300 39 343 40 385.8 36.3C428.7 32.7 471.3 24.3 514.2 25.7C557 27 600 38 642.8 42.3C685.7 46.7 728.3 44.3 771.2 41.3C814 38.3 857 34.7 878.5 32.8L900 31L900 101L878.5 101C857 101 814 101 771.2 101C728.3 101 685.7 101 642.8 101C600 101 557 101 514.2 101C471.3 101 428.7 101 385.8 101C343 101 300 101 257.2 101C214.3 101 171.7 101 128.8 101C86 101 43 101 21.5 101L0 101Z" fill="#203f74"></path><path d="M0 45L21.5 45.5C43 46 86 47 128.8 49C171.7 51 214.3 54 257.2 55.7C300 57.3 343 57.7 385.8 54C428.7 50.3 471.3 42.7 514.2 41.7C557 40.7 600 46.3 642.8 46.5C685.7 46.7 728.3 41.3 771.2 42.2C814 43 857 50 878.5 53.5L900 57L900 101L878.5 101C857 101 814 101 771.2 101C728.3 101 685.7 101 642.8 101C600 101 557 101 514.2 101C471.3 101 428.7 101 385.8 101C343 101 300 101 257.2 101C214.3 101 171.7 101 128.8 101C86 101 43 101 21.5 101L0 101Z" fill="#1e4e80"></path><path d="M0 63L21.5 60.3C43 57.7 86 52.3 128.8 49.5C171.7 46.7 214.3 46.3 257.2 46.8C300 47.3 343 48.7 385.8 50.2C428.7 51.7 471.3 53.3 514.2 55.2C557 57 600 59 642.8 58.8C685.7 58.7 728.3 56.3 771.2 57.7C814 59 857 64 878.5 66.5L900 69L900 101L878.5 101C857 101 814 101 771.2 101C728.3 101 685.7 101 642.8 101C600 101 557 101 514.2 101C471.3 101 428.7 101 385.8 101C343 101 300 101 257.2 101C214.3 101 171.7 101 128.8 101C86 101 43 101 21.5 101L0 101Z" fill="#1f5c8b"></path><path d="M0 68L21.5 67.7C43 67.3 86 66.7 128.8 66.7C171.7 66.7 214.3 67.3 257.2 69.3C300 71.3 343 74.7 385.8 76C428.7 77.3 471.3 76.7 514.2 76.7C557 76.7 600 77.3 642.8 76.5C685.7 75.7 728.3 73.3 771.2 73.7C814 74 857 77 878.5 78.5L900 80L900 101L878.5 101C857 101 814 101 771.2 101C728.3 101 685.7 101 642.8 101C600 101 557 101 514.2 101C471.3 101 428.7 101 385.8 101C343 101 300 101 257.2 101C214.3 101 171.7 101 128.8 101C86 101 43 101 21.5 101L0 101Z" fill="#256a95"></path><path d="M0 86L21.5 85.3C43 84.7 86 83.3 128.8 81.7C171.7 80 214.3 78 257.2 78.8C300 79.7 343 83.3 385.8 83.2C428.7 83 471.3 79 514.2 78.2C557 77.3 600 79.7 642.8 80.8C685.7 82 728.3 82 771.2 82.3C814 82.7 857 83.3 878.5 83.7L900 84L900 101L878.5 101C857 101 814 101 771.2 101C728.3 101 685.7 101 642.8 101C600 101 557 101 514.2 101C471.3 101 428.7 101 385.8 101C343 101 300 101 257.2 101C214.3 101 171.7 101 128.8 101C86 101 43 101 21.5 101L0 101Z" fill="#2e799f"></path></svg>