<svg id="visual" viewBox="0 0 960 100" width="960" height="100" xmlns="http://www.w3.org/2000/svg" xmlns:xlink="http://www.w3.org/1999/xlink" version="1.1"><path d="M0 40L22.8 36.7C45.7 33.3 91.3 26.7 137 24.5C182.7 22.3 228.3 24.7 274 24C319.7 23.3 365.3 19.7 411.2 18.5C457 17.3 503 18.7 548.8 22.3C594.7 26 640.3 32 686 33.7C731.7 35.3 777.3 32.7 823 33.3C868.7 34 914.3 38 937.2 40L960 42L960 101L937.2 101C914.3 101 868.7 101 823 101C777.3 101 731.7 101 686 101C640.3 101 594.7 101 548.8 101C503 101 457 101 411.2 101C365.3 101 319.7 101 274 101C228.3 101 182.7 101 137 101C91.3 101 45.7 101 22.8 101L0 101Z" fill="#374171"></path><path d="M0 53L22.8 50.5C45.7 48 91.3 43 137 39.2C182.7 35.3 228.3 32.7 274 32.8C319.7 33 365.3 36 411.2 38C457 40 503 41 548.8 43.5C594.7 46 640.3 50 686 52.5C731.7 55 777.3 56 823 56.5C868.7 57 914.3 57 937.2 57L960 57L960 101L937.2 101C914.3 101 868.7 101 823 101C777.3 101 731.7 101 686 101C640.3 101 594.7 101 548.8 101C503 101 457 101 411.2 101C365.3 101 319.7 101 274 101C228.3 101 182.7 101 137 101C91.3 101 45.7 101 22.8 101L0 101Z" fill="#344f7f"></path><path d="M0 50L22.8 51.7C45.7 53.3 91.3 56.7 137 59.7C182.7 62.7 228.3 65.3 274 63.7C319.7 62 365.3 56 411.2 54C457 52 503 54 548.8 55.2C594.7 56.3 640.3 56.7 686 55.2C731.7 53.7 777.3 50.3 823 48.8C868.7 47.3 914.3 47.7 937.2 47.8L960 48L960 101L937.2 101C914.3 101 868.7 101 823 101C777.3 101 731.7 101 686 101C640.3 101 594.7 101 548.8 101C503 101 457 101 411.2 101C365.3 101 319.7 101 274 101C228.3 101 182.7 101 137 101C91.3 101 45.7 101 22.8 101L0 101Z" fill="#305d8b"></path><path d="M0 62L22.8 64.8C45.7 67.7 91.3 73.3 137 75.8C182.7 78.3 228.3 77.7 274 74.5C319.7 71.3 365.3 65.7 411.2 63.5C457 61.3 503 62.7 548.8 65.2C594.7 67.7 640.3 71.3 686 71.7C731.7 72 777.3 69 823 68.2C868.7 67.3 914.3 68.7 937.2 69.3L960 70L960 101L937.2 101C914.3 101 868.7 101 823 101C777.3 101 731.7 101 686 101C640.3 101 594.7 101 548.8 101C503 101 457 101 411.2 101C365.3 101 319.7 101 274 101C228.3 101 182.7 101 137 101C91.3 101 45.7 101 22.8 101L0 101Z" fill="#2e6b96"></path><path d="M0 84L22.8 84.2C45.7 84.3 91.3 84.7 137 84C182.7 83.3 228.3 81.7 274 81.7C319.7 81.7 365.3 83.3 411.2 82.5C457 81.7 503 78.3 548.8 77.8C594.7 77.3 640.3 79.7 686 80C731.7 80.3 777.3 78.7 823 77.5C868.7 76.3 914.3 75.7 937.2 75.3L960 75L960 101L937.2 101C914.3 101 868.7 101 823 101C777.3 101 731.7 101 686 101C640.3 101 594.7 101 548.8 101C503 101 457 101 411.2 101C365.3 101 319.7 101 274 101C228.3 101 182.7 101 137 101C91.3 101 45.7 101 22.8 101L0 101Z" fill="#2e799f"></path></svg>