<svg id="图层_1" data-name="图层 1" xmlns="http://www.w3.org/2000/svg" viewBox="0 0 1367.54 167.79"><defs><style>.cls-1{fill:#001a3d;}.cls-2{fill:#012d76;}.cls-3{fill:#006bc5;}.cls-4{fill:#004d9b;}.cls-5{fill:#50b6f6;}</style></defs><title>wave1</title><path class="cls-1" d="M1367.26,522V501c-66.64-8.32-345.38,40.17-435.26,42.91-111.1,3.4-121,2-247,2-62.45,0-294.23-19.54-394.65-24.49-33.49-1.65-71.29-4.06-105-3.55-56.08.86-122.47,4.73-170.59,17.57-7.92,2.11-12.33,4.78-15,7.79V585.4a40.48,40.48,0,0,0,5.81,4.15c14.12,8.41,37.91,13.12,61.32,16.6,101.09,15,211.68,13.68,319.15,12.14l720.48-10.35c34.76-.5,70.64-1.11,102-7.23s57.39-19.29,53.93-33.47C1316.68,547.09,1350.08,532.39,1367.26,522Z" transform="translate(0.28 -500)"/><path class="cls-2" d="M1367.26,528a60.38,60.38,0,0,0-16.61-2.14c-30.28,0-66.3-8.79-101.16-8.16-151.33,2.72-301.2,19.95-435.87,50.12-47.18,10.57-97.45,23.11-149.77,19.29-42-3.08-75.8-16.14-112.11-25.85-33.59-9-71.16-15-109.91-18.08-68.53-5.42-140.93-1.72-204.61,10.58-21.44,4.14-77.08,14.3-84.31,24.91-9.19,13.49,35,28.62,58.28,32.7,31.34,5.48,66.19,5.24,100,4.92l392.13-3.68,340.9-3.2c73-.69,146.19-1.38,218.59-5.5,37.61-2.15,77.64-5.83,103.73-17.81l.75-.36Z" transform="translate(0.28 -500)"/><path class="cls-3" d="M1367.26,510.67c-21.57,25.38-77.82,40.14-147.57,47.54-62.28,6.6-128.81,1.7-193.34-.24-47.35-1.43-97.68-3.46-146.71-3.38-36.2.06-68.26,1.06-103.54,3.77a554.14,554.14,0,0,0-88.48,13.89L663,578c-30.33,7.09-61.16,14.26-95.55,17.93-47.1,5-104.57,6.75-151.43,1.25-65-7.62-110.72-20.09-161-32.55C152.09,539.15,91.41,540.69-.28,585.82v.49l1121.78,39.5c147.78,0,215.41-49.47,245.76-47Z" transform="translate(0.28 -500)"/><path class="cls-4" d="M1367.26,546.31c-5-1.25-10,1.41-46.21,8.1-28.14,5.18-49.59,20.52-77,26.31-30.45,6.43-98.26,3.95-128,11-31.22,7.36-45.25,16.93-70.57,27.81A2384,2384,0,0,1,1367.26,628Z" transform="translate(0.28 -500)"/><path class="cls-5" d="M1367.26,627.07c-46.63-19.72-120.26-12.53-182.73-11.56-63.9,1-128,4.45-191.54,1.68-126.26-5.52-254-35.27-381.12-34.39-35.26.25-69.84,3.55-93.52,5.75-12.06,1.12-21.29,2-26.35,2-67.23,0-186.95-8.74-268-15-75.42-5.88-159.67-7.25-224.24,8.08V636c109.18-15.13,231.29-11.2,344.17,4C462,656,577.64,660.2,688.44,646.78c37.1-4.49,72.33-11.59,111-13.45S879,633.64,894,647c5.38,4.78,13,13,21.69,17.06,16.47,7.69,44.58,1.74,65.41-2.24,120.09-23,252.77-32.58,386.16-24.89Z" transform="translate(0.28 -500)"/></svg>