<svg id="visual" viewBox="0 0 900 100" width="900" height="100" xmlns="http://www.w3.org/2000/svg" xmlns:xlink="http://www.w3.org/1999/xlink" version="1.1"><path d="M0 18L21.5 18.7C43 19.3 86 20.7 128.8 25.3C171.7 30 214.3 38 257.2 41.8C300 45.7 343 45.3 385.8 41.3C428.7 37.3 471.3 29.7 514.2 25.2C557 20.7 600 19.3 642.8 23.7C685.7 28 728.3 38 771.2 42C814 46 857 44 878.5 43L900 42L900 101L878.5 101C857 101 814 101 771.2 101C728.3 101 685.7 101 642.8 101C600 101 557 101 514.2 101C471.3 101 428.7 101 385.8 101C343 101 300 101 257.2 101C214.3 101 171.7 101 128.8 101C86 101 43 101 21.5 101L0 101Z" fill="#203f74"></path><path d="M0 43L21.5 45.2C43 47.3 86 51.7 128.8 54.2C171.7 56.7 214.3 57.3 257.2 57C300 56.7 343 55.3 385.8 51C428.7 46.7 471.3 39.3 514.2 38.2C557 37 600 42 642.8 43.3C685.7 44.7 728.3 42.3 771.2 39.8C814 37.3 857 34.7 878.5 33.3L900 32L900 101L878.5 101C857 101 814 101 771.2 101C728.3 101 685.7 101 642.8 101C600 101 557 101 514.2 101C471.3 101 428.7 101 385.8 101C343 101 300 101 257.2 101C214.3 101 171.7 101 128.8 101C86 101 43 101 21.5 101L0 101Z" fill="#1e4e80"></path><path d="M0 49L21.5 49.8C43 50.7 86 52.3 128.8 55.5C171.7 58.7 214.3 63.3 257.2 65.3C300 67.3 343 66.7 385.8 64.2C428.7 61.7 471.3 57.3 514.2 56C557 54.7 600 56.3 642.8 57.2C685.7 58 728.3 58 771.2 56.5C814 55 857 52 878.5 50.5L900 49L900 101L878.5 101C857 101 814 101 771.2 101C728.3 101 685.7 101 642.8 101C600 101 557 101 514.2 101C471.3 101 428.7 101 385.8 101C343 101 300 101 257.2 101C214.3 101 171.7 101 128.8 101C86 101 43 101 21.5 101L0 101Z" fill="#1f5c8b"></path><path d="M0 80L21.5 79C43 78 86 76 128.8 72.7C171.7 69.3 214.3 64.7 257.2 62.5C300 60.3 343 60.7 385.8 61C428.7 61.3 471.3 61.7 514.2 61.5C557 61.3 600 60.7 642.8 62.3C685.7 64 728.3 68 771.2 69.3C814 70.7 857 69.3 878.5 68.7L900 68L900 101L878.5 101C857 101 814 101 771.2 101C728.3 101 685.7 101 642.8 101C600 101 557 101 514.2 101C471.3 101 428.7 101 385.8 101C343 101 300 101 257.2 101C214.3 101 171.7 101 128.8 101C86 101 43 101 21.5 101L0 101Z" fill="#256a95"></path><path d="M0 78L21.5 79.5C43 81 86 84 128.8 85.8C171.7 87.7 214.3 88.3 257.2 86.5C300 84.7 343 80.3 385.8 80.2C428.7 80 471.3 84 514.2 83.7C557 83.3 600 78.7 642.8 77.5C685.7 76.3 728.3 78.7 771.2 80.2C814 81.7 857 82.3 878.5 82.7L900 83L900 101L878.5 101C857 101 814 101 771.2 101C728.3 101 685.7 101 642.8 101C600 101 557 101 514.2 101C471.3 101 428.7 101 385.8 101C343 101 300 101 257.2 101C214.3 101 171.7 101 128.8 101C86 101 43 101 21.5 101L0 101Z" fill="#2e799f"></path></svg>